<svg width="48" height="48" viewBox="0 0 48 48" fill="none" xmlns="http://www.w3.org/2000/svg">
<path d="M23.9908 46.0998C12.487 46.0998 3.12207 36.3798 3.12207 24.4398C3.12207 12.4998 12.487 2.77985 23.9908 2.77985C35.4946 2.77985 44.8595 12.4998 44.8595 24.4398C44.8788 36.3798 35.5139 46.0998 23.9908 46.0998ZM23.9908 6.75985C14.6066 6.75985 6.97594 14.6798 6.97594 24.4198C6.97594 34.1598 14.6066 42.0798 23.9908 42.0798C33.375 42.0798 41.0056 34.1598 41.0056 24.4198C41.0056 14.6798 33.3943 6.75985 23.9908 6.75985Z" fill="#8253FF" fill-opacity="0.95"/>
<path d="M23.9904 26.4201C22.9306 26.4201 22.0635 25.5201 22.0635 24.4201V11.1201C22.0635 10.0201 22.9306 9.12006 23.9904 9.12006C25.0502 9.12006 25.9174 10.0201 25.9174 11.1201V24.4201C25.9174 25.5401 25.0695 26.4201 23.9904 26.4201Z" fill="#8253FF" fill-opacity="0.95"/>
<path d="M2.04296 13.5C1.11803 13.5 0.308713 12.82 0.154558 11.84C-0.384985 8.59998 0.617023 5.27998 2.85227 2.95998C5.08752 0.639977 8.28623 -0.420023 11.4079 0.159977C12.4484 0.339977 13.1614 1.37998 12.9687 2.47998C12.776 3.55998 11.7933 4.29998 10.7334 4.09998C8.84504 3.73998 6.95665 4.35998 5.56925 5.77998C4.20113 7.21998 3.60377 9.15998 3.95062 11.16C4.12405 12.24 3.43035 13.28 2.3898 13.48C2.25492 13.48 2.15857 13.5 2.04296 13.5Z" fill="#8253FF" fill-opacity="0.95"/>
<path d="M45.9577 13.5001C45.842 13.5001 45.7457 13.5001 45.6301 13.4801C44.5895 13.2801 43.8766 12.2601 44.0693 11.1601C44.3968 9.18011 43.7995 7.22011 42.4314 5.80011C41.0632 4.38011 39.1556 3.76011 37.2672 4.10011C36.2266 4.28011 35.2246 3.56011 35.0319 2.48011C34.8585 1.40011 35.5522 0.360114 36.5927 0.160114C39.7144 -0.399886 42.9131 0.640114 45.1484 2.96011C47.3836 5.28011 48.4049 8.60011 47.8461 11.8401C47.6919 12.8201 46.8826 13.5001 45.9577 13.5001Z" fill="#8253FF" fill-opacity="0.95"/>
<path d="M18.672 31.8797C18.171 31.8797 17.6893 31.6797 17.3039 31.2997C16.5524 30.5197 16.5524 29.2597 17.3039 28.4797L22.4681 23.1397C23.2196 22.3597 24.4335 22.3597 25.185 23.1397C25.9365 23.9197 25.9365 25.1797 25.185 25.9597L20.0208 31.2997C19.6547 31.6797 19.1537 31.8797 18.672 31.8797Z" fill="#8253FF" fill-opacity="0.95"/>
<path d="M7.93908 47.9999C7.43807 47.9999 6.95634 47.7999 6.57095 47.4199C5.81945 46.6399 5.81945 45.3799 6.57095 44.5999L11.7159 39.2599C12.4674 38.4799 13.6814 38.4799 14.4329 39.2599C15.1844 40.0399 15.1844 41.2999 14.4329 42.0799L9.28793 47.4199C8.92182 47.7999 8.42081 47.9999 7.93908 47.9999Z" fill="#8253FF" fill-opacity="0.95"/>
<path d="M40.061 47.9999C39.56 47.9999 39.0783 47.7999 38.6929 47.4199L33.548 42.0799C32.7965 41.2999 32.7965 40.0399 33.548 39.2599C34.2995 38.4799 35.5135 38.4799 36.265 39.2599L41.4099 44.5999C42.1614 45.3799 42.1614 46.6399 41.4099 47.4199C41.0438 47.7999 40.5621 47.9999 40.061 47.9999Z" fill="#8253FF" fill-opacity="0.95"/>
</svg>
