<svg width="64" height="52" viewBox="0 0 64 52" fill="none" xmlns="http://www.w3.org/2000/svg">
<g clip-path="url(#clip0)">
<path d="M38.048 52H10.2575C9.2934 52 8.3293 51.8285 7.39884 51.4976C3.06043 50.0637 0 45.5659 0 40.5534C0 34.3399 4.5402 29.2784 10.1902 29.1191C11.4234 22.3908 16.9164 17.268 23.3848 17.268C28.8891 17.268 33.7096 20.8711 35.7835 26.2635C36.3776 26.1655 36.9718 26.1165 37.5772 26.1165C44.1128 26.1165 49.4153 31.9256 49.4153 39.0582C49.4153 44.7448 46.0858 49.7083 41.1308 51.3995C40.2004 51.7794 39.1242 52 38.048 52ZM10.4705 33.96C7.14101 33.96 4.4281 36.9258 4.4281 40.5657C4.4281 43.458 6.19933 46.0439 8.72167 46.8772C9.25976 47.0733 9.76423 47.1591 10.2575 47.1591H38.048C38.5973 47.1591 39.1466 47.0488 39.6847 46.8282C42.9021 45.7252 44.9872 42.6123 44.9872 39.0582C44.9872 34.585 41.6577 30.9574 37.5772 30.9574C36.7364 30.9574 35.8956 31.1167 35.0885 31.4476L32.7455 32.379L32.1738 29.7196C31.2097 25.2341 27.5999 22.1089 23.396 22.1089C18.5195 22.1089 14.4726 26.4474 14.3829 31.7785L14.3269 34.683L11.726 34.107C11.2888 34.009 10.8628 33.96 10.4705 33.96Z" fill="#8253FF" fill-opacity="0.95"/>
<path d="M47.4644 37.8572C46.9712 37.8572 46.4667 37.6734 46.0519 37.2935C45.1103 36.4356 44.9869 34.9159 45.7717 33.8865C48.9666 29.6828 48.4509 23.4325 44.6058 19.9397C42.7449 18.2485 40.3683 17.4396 37.9917 17.6847C35.5814 17.9298 33.4066 19.1799 31.8484 21.2143C31.0749 22.2438 29.6736 22.3786 28.7319 21.5207C27.7902 20.6628 27.6669 19.1431 28.4516 18.1137C30.761 15.0866 34.0008 13.2237 37.5881 12.8561C41.1754 12.5007 44.673 13.6894 47.442 16.2018C50.211 18.7264 51.9149 22.2683 52.2513 26.19C52.5764 30.1118 51.489 33.9477 49.1796 36.9748C48.7312 37.5631 48.0922 37.8572 47.4644 37.8572Z" fill="#8253FF" fill-opacity="0.95"/>
<path d="M51.1415 14.2164C50.637 14.2164 50.1438 14.0325 49.729 13.6526C48.7873 12.7947 48.664 11.2751 49.4487 10.2456L52.2625 6.55669C53.036 5.52723 54.4373 5.39242 55.379 6.25031C56.3207 7.10819 56.444 8.64013 55.6593 9.65733L52.8455 13.3462C52.4082 13.9222 51.7805 14.2164 51.1415 14.2164Z" fill="#8253FF" fill-opacity="0.95"/>
<path d="M42.2968 9.58382C42.1735 9.58382 42.0501 9.57156 41.9156 9.54705C40.7049 9.32645 39.8978 8.06414 40.1108 6.7528L40.8506 2.02219C41.0524 0.710851 42.2071 -0.171543 43.4066 0.0490556C44.6173 0.28191 45.4245 1.53197 45.2115 2.84331L44.4716 7.57392C44.2922 8.75045 43.3506 9.58382 42.2968 9.58382Z" fill="#8253FF" fill-opacity="0.95"/>
<path d="M32.4988 10.4049C31.6019 10.4049 30.75 9.80443 30.4249 8.82399L28.9003 4.31397C28.4743 3.06391 29.0684 1.66679 30.2119 1.20108C31.3553 0.73537 32.6333 1.37266 33.0593 2.63497L34.5839 7.14499C35.0099 8.39504 34.4158 9.79217 33.2723 10.2579C33.0032 10.3559 32.7566 10.4049 32.4988 10.4049Z" fill="#8253FF" fill-opacity="0.95"/>
<path d="M24.3937 16.4714C23.9005 16.4714 23.396 16.2876 22.9812 15.9076L19.5957 12.8315C18.654 11.9736 18.5307 10.454 19.3154 9.42449C20.0889 8.39503 21.4902 8.26022 22.4319 9.1181L25.8174 12.1942C26.7591 13.0521 26.8824 14.5718 26.0977 15.6013C25.6605 16.165 25.0215 16.4714 24.3937 16.4714Z" fill="#8253FF" fill-opacity="0.95"/>
<path d="M56.5788 46.5463C56.0743 46.5463 55.5811 46.3625 55.1663 45.9826L51.792 42.9065C50.8503 42.0486 50.727 40.5166 51.5117 39.4994C52.2964 38.47 53.6977 38.3352 54.6282 39.1931L58.0025 42.2692C58.9442 43.1271 59.0675 44.659 58.2828 45.6762C57.8456 46.2522 57.2178 46.5463 56.5788 46.5463Z" fill="#8253FF" fill-opacity="0.95"/>
<path d="M61.7804 34.6095C61.6571 34.6095 61.5225 34.5972 61.3992 34.5727L57.072 33.7516C55.8725 33.5188 55.0541 32.2687 55.2671 30.9574C55.4801 29.646 56.6348 28.7636 57.8231 28.9842L62.1503 29.8054C63.3498 30.0382 64.1682 31.2883 63.9552 32.5996C63.7758 33.7761 62.8454 34.6095 61.7804 34.6095Z" fill="#8253FF" fill-opacity="0.95"/>
<path d="M56.691 23.0894C55.7941 23.0894 54.9421 22.4889 54.617 21.5084C54.1911 20.2584 54.7852 18.8612 55.9287 18.3955L60.0653 16.7288C61.2087 16.2631 62.4867 16.9126 62.9127 18.1627C63.3387 19.4127 62.7446 20.8099 61.6011 21.2756L57.4645 22.9423C57.2066 23.0404 56.9488 23.0894 56.691 23.0894Z" fill="#8253FF" fill-opacity="0.95"/>
</g>
<defs>
<clipPath id="clip0">
<rect width="64" height="52" fill="white"/>
</clipPath>
</defs>
</svg>
