<svg width="152" height="51" viewBox="0 0 152 51" fill="none" xmlns="http://www.w3.org/2000/svg">
<path d="M7.17969 29.0156C7.17969 28.5729 7.02344 28.2344 6.71094 28C6.39844 27.7604 5.83594 27.5104 5.02344 27.25C4.21094 26.9844 3.56771 26.724 3.09375 26.4688C1.80208 25.7708 1.15625 24.8307 1.15625 23.6484C1.15625 23.0339 1.32812 22.487 1.67188 22.0078C2.02083 21.5234 2.51823 21.1458 3.16406 20.875C3.8151 20.6042 4.54427 20.4688 5.35156 20.4688C6.16406 20.4688 6.88802 20.6172 7.52344 20.9141C8.15885 21.2057 8.65104 21.6198 9 22.1562C9.35417 22.6927 9.53125 23.3021 9.53125 23.9844H7.1875C7.1875 23.4635 7.02344 23.0599 6.69531 22.7734C6.36719 22.4818 5.90625 22.3359 5.3125 22.3359C4.73958 22.3359 4.29427 22.4583 3.97656 22.7031C3.65885 22.9427 3.5 23.2604 3.5 23.6562C3.5 24.026 3.6849 24.3359 4.05469 24.5859C4.42969 24.8359 4.97917 25.0703 5.70312 25.2891C7.03646 25.6901 8.00781 26.1875 8.61719 26.7812C9.22656 27.375 9.53125 28.1146 9.53125 29C9.53125 29.9844 9.15885 30.7578 8.41406 31.3203C7.66927 31.8776 6.66667 32.1562 5.40625 32.1562C4.53125 32.1562 3.73438 31.9974 3.01562 31.6797C2.29688 31.3568 1.7474 30.9167 1.36719 30.3594C0.992188 29.8021 0.804688 29.1562 0.804688 28.4219H3.15625C3.15625 29.6771 3.90625 30.3047 5.40625 30.3047C5.96354 30.3047 6.39844 30.1927 6.71094 29.9688C7.02344 29.7396 7.17969 29.4219 7.17969 29.0156ZM14.8672 32.1562C13.6276 32.1562 12.6172 31.776 11.8359 31.0156C11.0599 30.2552 10.6719 29.2422 10.6719 27.9766V27.7578C10.6719 26.9089 10.8359 26.151 11.1641 25.4844C11.4922 24.8125 11.9557 24.2969 12.5547 23.9375C13.1589 23.5729 13.8464 23.3906 14.6172 23.3906C15.7734 23.3906 16.6823 23.7552 17.3438 24.4844C18.0104 25.2135 18.3438 26.2474 18.3438 27.5859V28.5078H12.9609C13.0339 29.0599 13.2526 29.5026 13.6172 29.8359C13.987 30.1693 14.4531 30.3359 15.0156 30.3359C15.8854 30.3359 16.5651 30.0208 17.0547 29.3906L18.1641 30.6328C17.8255 31.112 17.3672 31.487 16.7891 31.7578C16.2109 32.0234 15.5703 32.1562 14.8672 32.1562ZM14.6094 25.2188C14.1615 25.2188 13.7969 25.3698 13.5156 25.6719C13.2396 25.974 13.0625 26.4062 12.9844 26.9688H16.125V26.7891C16.1146 26.2891 15.9792 25.9036 15.7188 25.6328C15.4583 25.3568 15.0885 25.2188 14.6094 25.2188ZM24.3828 25.6641C24.0755 25.6224 23.8047 25.6016 23.5703 25.6016C22.7161 25.6016 22.1562 25.8906 21.8906 26.4688V32H19.6328V23.5469H21.7656L21.8281 24.5547C22.2812 23.7786 22.9089 23.3906 23.7109 23.3906C23.9609 23.3906 24.1953 23.4245 24.4141 23.4922L24.3828 25.6641ZM28.7812 29.2422L30.3516 23.5469H32.7109L29.8594 32H27.7031L24.8516 23.5469H27.2109L28.7812 29.2422ZM36.0938 32H33.8281V23.5469H36.0938V32ZM33.6953 21.3594C33.6953 21.0208 33.8073 20.7422 34.0312 20.5234C34.2604 20.3047 34.5703 20.1953 34.9609 20.1953C35.3464 20.1953 35.6536 20.3047 35.8828 20.5234C36.112 20.7422 36.2266 21.0208 36.2266 21.3594C36.2266 21.7031 36.1094 21.9844 35.875 22.2031C35.6458 22.4219 35.3411 22.5312 34.9609 22.5312C34.5807 22.5312 34.2734 22.4219 34.0391 22.2031C33.8099 21.9844 33.6953 21.7031 33.6953 21.3594ZM41.4766 30.3359C41.8932 30.3359 42.2318 30.2214 42.4922 29.9922C42.7526 29.763 42.888 29.4583 42.8984 29.0781H45.0156C45.0104 29.651 44.8542 30.1771 44.5469 30.6562C44.2396 31.1302 43.8177 31.5 43.2812 31.7656C42.75 32.026 42.1615 32.1562 41.5156 32.1562C40.3073 32.1562 39.3542 31.7734 38.6562 31.0078C37.9583 30.237 37.6094 29.1745 37.6094 27.8203V27.6719C37.6094 26.3698 37.9557 25.3307 38.6484 24.5547C39.3411 23.7786 40.2917 23.3906 41.5 23.3906C42.5573 23.3906 43.4036 23.6927 44.0391 24.2969C44.6797 24.8958 45.0052 25.6953 45.0156 26.6953H42.8984C42.888 26.2578 42.7526 25.9036 42.4922 25.6328C42.2318 25.3568 41.888 25.2188 41.4609 25.2188C40.9349 25.2188 40.5365 25.4115 40.2656 25.7969C40 26.1771 39.8672 26.7969 39.8672 27.6562V27.8906C39.8672 28.7604 40 29.3854 40.2656 29.7656C40.5312 30.1458 40.9349 30.3359 41.4766 30.3359ZM48.6875 32H46.4219V23.5469H48.6875V32ZM46.2891 21.3594C46.2891 21.0208 46.401 20.7422 46.625 20.5234C46.8542 20.3047 47.1641 20.1953 47.5547 20.1953C47.9401 20.1953 48.2474 20.3047 48.4766 20.5234C48.7057 20.7422 48.8203 21.0208 48.8203 21.3594C48.8203 21.7031 48.7031 21.9844 48.4688 22.2031C48.2396 22.4219 47.9349 22.5312 47.5547 22.5312C47.1745 22.5312 46.8672 22.4219 46.6328 22.2031C46.4036 21.9844 46.2891 21.7031 46.2891 21.3594ZM50.2031 27.6953C50.2031 26.8568 50.3646 26.1094 50.6875 25.4531C51.0104 24.7969 51.474 24.2891 52.0781 23.9297C52.6875 23.5703 53.3932 23.3906 54.1953 23.3906C55.3359 23.3906 56.2656 23.7396 56.9844 24.4375C57.7083 25.1354 58.112 26.0833 58.1953 27.2812L58.2109 27.8594C58.2109 29.1562 57.849 30.1979 57.125 30.9844C56.401 31.7656 55.4297 32.1562 54.2109 32.1562C52.9922 32.1562 52.0182 31.7656 51.2891 30.9844C50.5651 30.2031 50.2031 29.1406 50.2031 27.7969V27.6953ZM52.4609 27.8594C52.4609 28.6615 52.612 29.276 52.9141 29.7031C53.2161 30.125 53.6484 30.3359 54.2109 30.3359C54.7578 30.3359 55.1849 30.1276 55.4922 29.7109C55.7995 29.2891 55.9531 28.6172 55.9531 27.6953C55.9531 26.9089 55.7995 26.2995 55.4922 25.8672C55.1849 25.4349 54.7526 25.2188 54.1953 25.2188C53.6432 25.2188 53.2161 25.4349 52.9141 25.8672C52.612 26.2943 52.4609 26.9583 52.4609 27.8594Z" fill="white"/>
<g clip-path="url(#clip0)">
<path d="M100.001 32.0599L107.519 26.5765C110.328 24.5082 111.468 23.4189 111.708 21.7524C111.955 20.0576 110.963 19.1409 109.376 19.1409C107.819 19.1409 106.626 20.0038 104.86 21.8401L102.108 19.3417C104.489 16.6425 106.634 15.1797 110.24 15.1797C114.421 15.1797 116.839 17.6186 116.292 21.3817L116.284 21.4383C115.796 24.7968 113.823 26.4633 109.846 29.2192L106.192 31.7458H114.988L114.435 35.5655H99.494L100.001 32.0599Z" fill="white"/>
<path d="M126.57 31.2282H116.706L116.439 28.0989L129.371 15.3213H133.121L131.333 27.6377H134.045L133.524 31.2282H130.814L130.185 35.5628H125.944L126.57 31.2282ZM127.092 27.6377L128.002 21.379L121.729 27.6377H127.092Z" fill="white"/>
<path d="M139.341 14.6025H143.726L142.6 22.3551C143.797 21.0621 145.265 19.885 147.487 19.885C150.804 19.885 152.42 22.0665 151.906 25.6004L150.461 35.5628H146.076L147.323 26.9784C147.623 24.9101 146.796 23.849 145.123 23.849C143.451 23.849 142.229 24.9129 141.929 26.9784L140.681 35.5628H136.296L139.341 14.6025Z" fill="white"/>
<path d="M104.358 40.7293L105.895 42.2628C102.349 45.2987 97.986 47.1067 93.3316 47.4746V42.2685H89.8733V47.4831C85.0601 47.1209 80.6721 45.211 77.2081 42.2543L78.7389 40.7293L76.2926 38.2875L74.7647 39.8125C71.8138 36.3663 69.9033 32.009 69.5291 27.2245H74.7477V25.4986V23.7726H69.5263C69.8976 18.9881 71.8082 14.6308 74.7619 11.1846L76.2897 12.7097L78.736 10.2679L77.2053 8.74286C80.6692 5.7833 85.0573 3.87345 89.8705 3.51412V8.72871H93.3287V3.52261C97.9974 3.89043 102.366 5.70974 105.917 8.75418L104.375 10.2509L106.785 12.7267L110.889 8.74569L109.653 7.50641C104.826 2.66813 98.3942 0 91.5486 0C84.7228 0 78.308 2.65398 73.4834 7.46963C68.6589 12.2853 66 18.6882 66 25.5014C66 32.3118 68.6589 38.7176 73.4834 43.5332C78.308 48.3489 84.7228 51.0028 91.5486 51.0028C98.3744 51.0028 104.789 48.3489 109.614 43.5332L110.838 42.3137L106.807 38.2903L104.358 40.7293Z" fill="white"/>
<path d="M93.3316 13.6123V27.2246H79.6375V23.7727H89.8705V13.6123H93.3316Z" fill="white"/>
</g>
<defs>
<clipPath id="clip0">
<rect width="86" height="51" fill="white" transform="translate(66)"/>
</clipPath>
</defs>
</svg>
